<?xml version="1.0" standalone="no"?><!DOCTYPE svg PUBLIC "-//W3C//DTD SVG 1.1//EN" "http://www.w3.org/Graphics/SVG/1.1/DTD/svg11.dtd"><svg t="1728486518641" class="icon" viewBox="0 0 1024 1024" version="1.1" xmlns="http://www.w3.org/2000/svg" p-id="6165" xmlns:xlink="http://www.w3.org/1999/xlink" width="200" height="200"><path d="M571.904 508.416l376.832-376.832c15.872-15.872 15.872-41.984 0-57.856-15.872-15.872-41.984-15.872-57.856 0L514.048 450.56 137.216 73.728c-15.872-15.872-41.984-15.872-57.856 0-15.872 15.872-15.872 41.984 0 57.856l376.832 376.832-376.832 376.832c-15.872 15.872-15.872 41.984 0 57.856 8.192 8.192 18.432 11.776 29.184 11.776 10.24 0 20.992-4.096 29.184-11.776l376.832-376.832 376.832 376.832c8.192 8.192 18.432 11.776 29.184 11.776s20.992-4.096 29.184-11.776c15.872-15.872 15.872-41.984 0-57.856l-377.856-376.832z" fill="#ffffff" p-id="6166"></path></svg>